<svg width="40" height="40" viewBox="0 0 40 40" fill="none" xmlns="http://www.w3.org/2000/svg">
<path fill-rule="evenodd" clip-rule="evenodd" d="M23.9907 5.21094C24.5092 5.21094 24.9296 4.79055 24.9296 4.27197C24.9296 3.7534 24.5092 3.33301 23.9907 3.33301C23.4721 3.33301 23.0517 3.7534 23.0517 4.27197C23.0517 4.79055 23.4721 5.21094 23.9907 5.21094ZM17.8874 8.49728C17.8874 9.53444 17.0466 10.3752 16.0094 10.3752C14.9723 10.3752 14.1315 9.53444 14.1315 8.49728C14.1315 7.46013 14.9723 6.61935 16.0094 6.61935C17.0466 6.61935 17.8874 7.46013 17.8874 8.49728ZM27.277 15.7743C27.277 17.4597 25.9108 18.8259 24.2254 18.8259C22.54 18.8259 21.1737 17.4597 21.1737 15.7743C21.1737 14.0889 22.54 12.7227 24.2254 12.7227C25.9108 12.7227 27.277 14.0889 27.277 15.7743ZM15.7747 27.2767C17.46 27.2767 18.8263 25.9104 18.8263 24.225C18.8263 22.5396 17.46 21.1734 15.7747 21.1734C14.0893 21.1734 12.723 22.5396 12.723 24.225C12.723 25.9104 14.0893 27.2767 15.7747 27.2767ZM24.2254 27.2767C25.9108 27.2767 27.277 25.9104 27.277 24.225C27.277 22.5396 25.9108 21.1734 24.2254 21.1734C22.54 21.1734 21.1737 22.5396 21.1737 24.225C21.1737 25.9104 22.54 27.2767 24.2254 27.2767ZM15.7747 18.8259C17.46 18.8259 18.8263 17.4597 18.8263 15.7743C18.8263 14.0889 17.46 12.7227 15.7747 12.7227C14.0893 12.7227 12.723 14.0889 12.723 15.7743C12.723 17.4597 14.0893 18.8259 15.7747 18.8259ZM16.0094 33.38C17.0466 33.38 17.8874 32.5392 17.8874 31.502C17.8874 30.4649 17.0466 29.6241 16.0094 29.6241C14.9723 29.6241 14.1315 30.4649 14.1315 31.502C14.1315 32.5392 14.9723 33.38 16.0094 33.38ZM10.8451 30.7977C10.8451 31.7052 10.1094 32.4409 9.20194 32.4409C8.29443 32.4409 7.55874 31.7052 7.55874 30.7977C7.55874 29.8902 8.29443 29.1545 9.20194 29.1545C10.1094 29.1545 10.8451 29.8902 10.8451 30.7977ZM8.49769 25.8682C9.53485 25.8682 10.3756 25.0274 10.3756 23.9902C10.3756 22.9531 9.53485 22.1123 8.49769 22.1123C7.46054 22.1123 6.61976 22.9531 6.61976 23.9902C6.61976 25.0274 7.46054 25.8682 8.49769 25.8682ZM10.3756 16.0091C10.3756 17.0462 9.53485 17.887 8.49769 17.887C7.46054 17.887 6.61976 17.0462 6.61976 16.0091C6.61976 14.9719 7.46054 14.1311 8.49769 14.1311C9.53485 14.1311 10.3756 14.9719 10.3756 16.0091ZM4.27234 16.948C4.79092 16.948 5.21131 16.5276 5.21131 16.0091C5.21131 15.4905 4.79092 15.0701 4.27234 15.0701C3.75376 15.0701 3.33337 15.4905 3.33337 16.0091C3.33337 16.5276 3.75376 16.948 4.27234 16.948ZM36.6667 16.009C36.6667 16.5276 36.2463 16.948 35.7277 16.948C35.2091 16.948 34.7888 16.5276 34.7888 16.009C34.7888 15.4905 35.2091 15.0701 35.7277 15.0701C36.2463 15.0701 36.6667 15.4905 36.6667 16.009ZM24.9296 35.7275C24.9296 36.246 24.5092 36.6664 23.9907 36.6664C23.4721 36.6664 23.0517 36.246 23.0517 35.7275C23.0517 35.2089 23.4721 34.7885 23.9907 34.7885C24.5092 34.7885 24.9296 35.2089 24.9296 35.7275ZM16.0094 5.21094C16.528 5.21094 16.9484 4.79055 16.9484 4.27197C16.9484 3.7534 16.528 3.33301 16.0094 3.33301C15.4909 3.33301 15.0705 3.7534 15.0705 4.27197C15.0705 4.79055 15.4909 5.21094 16.0094 5.21094ZM16.9484 35.7275C16.9484 36.246 16.528 36.6664 16.0094 36.6664C15.4909 36.6664 15.0705 36.246 15.0705 35.7275C15.0705 35.2089 15.4909 34.7885 16.0094 34.7885C16.528 34.7885 16.9484 35.2089 16.9484 35.7275ZM4.27234 24.9293C4.79092 24.9293 5.21131 24.5089 5.21131 23.9903C5.21131 23.4717 4.79092 23.0513 4.27234 23.0513C3.75376 23.0513 3.33337 23.4717 3.33337 23.9903C3.33337 24.5089 3.75376 24.9293 4.27234 24.9293ZM36.6667 23.9902C36.6667 24.5088 36.2463 24.9292 35.7277 24.9292C35.2091 24.9292 34.7888 24.5088 34.7888 23.9902C34.7888 23.4716 35.2091 23.0512 35.7277 23.0512C36.2463 23.0512 36.6667 23.4716 36.6667 23.9902ZM9.20194 10.8447C10.1094 10.8447 10.8451 10.109 10.8451 9.20147C10.8451 8.29395 10.1094 7.55827 9.20194 7.55827C8.29443 7.55827 7.55874 8.29395 7.55874 9.20147C7.55874 10.109 8.29443 10.8447 9.20194 10.8447ZM25.8686 8.49728C25.8686 9.53444 25.0278 10.3752 23.9907 10.3752C22.9535 10.3752 22.1127 9.53444 22.1127 8.49728C22.1127 7.46013 22.9535 6.61935 23.9907 6.61935C25.0278 6.61935 25.8686 7.46013 25.8686 8.49728ZM23.9907 33.38C25.0278 33.38 25.8686 32.5392 25.8686 31.502C25.8686 30.4649 25.0278 29.6241 23.9907 29.6241C22.9535 29.6241 22.1127 30.4649 22.1127 31.502C22.1127 32.5392 22.9535 33.38 23.9907 33.38ZM32.4413 30.7977C32.4413 31.7052 31.7057 32.4409 30.7981 32.4409C29.8906 32.4409 29.155 31.7052 29.155 30.7977C29.155 29.8902 29.8906 29.1545 30.7981 29.1545C31.7057 29.1545 32.4413 29.8902 32.4413 30.7977ZM31.5024 25.8682C32.5396 25.8682 33.3803 25.0274 33.3803 23.9902C33.3803 22.9531 32.5396 22.1123 31.5024 22.1123C30.4653 22.1123 29.6245 22.9531 29.6245 23.9902C29.6245 25.0274 30.4653 25.8682 31.5024 25.8682ZM33.3803 16.0091C33.3803 17.0462 32.5396 17.887 31.5024 17.887C30.4653 17.887 29.6245 17.0462 29.6245 16.0091C29.6245 14.9719 30.4653 14.1311 31.5024 14.1311C32.5396 14.1311 33.3803 14.9719 33.3803 16.0091ZM30.7981 10.8447C31.7057 10.8447 32.4413 10.109 32.4413 9.20147C32.4413 8.29395 31.7057 7.55827 30.7981 7.55827C29.8906 7.55827 29.155 8.29395 29.155 9.20147C29.155 10.109 29.8906 10.8447 30.7981 10.8447Z" fill="url(#paint0_linear_245_20524)"/>
<defs>
<linearGradient id="paint0_linear_245_20524" x1="36.6667" y1="36.6664" x2="-2.99698" y2="25.1663" gradientUnits="userSpaceOnUse">
<stop stop-color="#1BAC4B"/>
<stop offset="1" stop-color="#46D375"/>
</linearGradient>
</defs>
</svg>
