<svg width="20" height="17" viewBox="0 0 20 17" fill="none" xmlns="http://www.w3.org/2000/svg">
<g id="Group">
<path id="Vector" d="M19.3334 8.31934C19.3334 8.76231 19.0042 9.12841 18.5771 9.18635L18.4584 9.19433L0.958372 9.19433C0.475124 9.19433 0.0833721 8.80258 0.0833721 8.31934C0.0833721 7.87636 0.412552 7.51026 0.839642 7.45232L0.958372 7.44434L18.4584 7.44434C18.9416 7.44434 19.3334 7.83609 19.3334 8.31934Z" fill="white"/>
<path id="Vector_2" d="M8.63386 14.7281C8.97631 15.0691 8.9775 15.6231 8.63653 15.9656C8.32655 16.2769 7.84051 16.3062 7.49742 16.0527L7.39909 15.9682L0.340761 8.94023C0.0285177 8.62933 0.000113487 8.14153 0.25556 7.79845L0.34071 7.70018L7.39904 0.671018C7.74146 0.330017 8.29548 0.331164 8.63648 0.67358C8.94648 0.984866 8.97371 1.47103 8.71884 1.81305L8.63392 1.91101L2.19855 8.32053L8.63386 14.7281Z" fill="white"/>
</g>
</svg>
