<svg xmlns="http://www.w3.org/2000/svg" width="25" height="24" viewBox="0 0 25 24" fill="none">
  <path fill-rule="evenodd" clip-rule="evenodd" d="M14.9749 11.105H18.204C18.6937 11.105 19.0784 10.7002 19.0784 10.212C19.0784 9.71199 18.6937 9.31909 18.204 9.31909H14.9749C14.4853 9.31909 14.1006 9.71199 14.1006 10.212C14.1006 10.7002 14.4853 11.105 14.9749 11.105ZM22.0394 4.91508C22.7505 4.91508 23.2168 5.16511 23.6831 5.71278C24.1494 6.26045 24.231 7.04625 24.1261 7.75941L23.0186 15.5697C22.8088 17.071 21.5498 18.1771 20.0692 18.1771H7.35083C5.80037 18.1771 4.51803 16.9639 4.3898 15.3923L3.3173 2.41365L1.55701 2.10409C1.09071 2.02075 0.764294 1.55642 0.845897 1.08018C0.9275 0.593227 1.38215 0.270576 1.86011 0.343202L4.64044 0.770626C5.0368 0.843252 5.32824 1.17543 5.36321 1.58023L5.5847 4.24716C5.61968 4.62934 5.92277 4.91508 6.29582 4.91508H22.0394ZM7.16407 20.0588C6.18484 20.0588 5.39212 20.8684 5.39212 21.8685C5.39212 22.8567 6.18484 23.6663 7.16407 23.6663C8.13165 23.6663 8.92437 22.8567 8.92437 21.8685C8.92437 20.8684 8.13165 20.0588 7.16407 20.0588ZM20.2789 20.0588C19.2996 20.0588 18.5069 20.8684 18.5069 21.8685C18.5069 22.8567 19.2996 23.6663 20.2789 23.6663C21.2464 23.6663 22.0391 22.8567 22.0391 21.8685C22.0391 20.8684 21.2464 20.0588 20.2789 20.0588Z" fill="url(#paint0_linear_1009_2248)"/>
  <defs>
    <linearGradient id="paint0_linear_1009_2248" x1="24.1667" y1="23.6663" x2="-3.59786" y2="15.6163" gradientUnits="userSpaceOnUse">
      <stop stop-color="#1BAC4B"/>
      <stop offset="1" stop-color="#46D375"/>
    </linearGradient>
  </defs>
</svg>
