<svg xmlns="http://www.w3.org/2000/svg" width="29" height="28" viewBox="0 0 29 28" fill="none">
  <g clip-path="url(#clip0_1048_4476)">
    <path d="M23.635 8.74985L20.9867 6.10151C21.0683 5.61151 21.1967 5.15651 21.36 4.75985C21.4883 4.45651 21.535 4.10651 21.465 3.74485C21.3133 2.90485 20.4967 2.32151 19.6333 2.33318C17.7783 2.36818 16.1333 3.27818 15.0833 4.66651H9.25001C5.70334 4.66651 2.83334 7.53651 2.83334 11.0832C2.83334 13.7082 4.43168 19.8098 5.26001 22.7965C5.54001 23.7998 6.46168 24.4998 7.51168 24.4998H9.83334C11.1167 24.4998 12.1667 23.4498 12.1667 22.1665H14.5C14.5 23.4498 15.55 24.4998 16.8333 24.4998H19.1783C20.205 24.4998 21.115 23.8232 21.4183 22.8315L22.8767 17.9782L25.3733 17.1382C25.8517 16.9748 26.1667 16.5315 26.1667 16.0298V9.91651C26.1667 9.27485 25.6417 8.74985 25 8.74985H23.635ZM14.5 10.4998H11C10.3583 10.4998 9.83334 9.97485 9.83334 9.33318C9.83334 8.69151 10.3583 8.16651 11 8.16651H14.5C15.1417 8.16651 15.6667 8.69151 15.6667 9.33318C15.6667 9.97485 15.1417 10.4998 14.5 10.4998ZM19.1667 12.8332C18.525 12.8332 18 12.3082 18 11.6665C18 11.0248 18.525 10.4998 19.1667 10.4998C19.8083 10.4998 20.3333 11.0248 20.3333 11.6665C20.3333 12.3082 19.8083 12.8332 19.1667 12.8332Z" fill="url(#paint0_linear_1048_4476)"/>
  </g>
  <defs>
    <linearGradient id="paint0_linear_1048_4476" x1="26.1667" y1="24.4998" x2="-1.36726" y2="16.0965" gradientUnits="userSpaceOnUse">
      <stop stop-color="#1BAC4B"/>
      <stop offset="1" stop-color="#46D375"/>
    </linearGradient>
    <clipPath id="clip0_1048_4476">
      <rect width="28" height="28" fill="white" transform="translate(0.5)"/>
    </clipPath>
  </defs>
</svg>
