<svg xmlns="http://www.w3.org/2000/svg" width="24" height="24" viewBox="0 0 24 24" fill="none">
  <path d="M11.1018 6.50593V1.82875C11.1018 1.33143 11.4985 0.916992 12.0002 0.916992C12.4493 0.916992 12.8299 1.26523 12.8902 1.70634L12.8985 1.82875V6.50593L18.475 6.50629C21.2517 6.50629 23.5329 8.78007 23.661 11.6158L23.6667 11.8674V17.7466C23.6667 20.6022 21.4648 22.9462 18.7294 23.0778L18.4867 23.0837H5.51337C2.73671 23.0837 0.466479 20.8212 0.339018 17.9751L0.333374 17.7225L0.333374 11.8554C0.333374 8.99978 2.52427 6.64441 5.25903 6.51215L5.50171 6.50629H11.1017V13.9757L9.23504 12.0481C8.88504 11.6867 8.31337 11.6867 7.96337 12.0481C7.78837 12.2289 7.70671 12.4698 7.70671 12.7108C7.70671 12.8939 7.75897 13.0847 7.86948 13.2462L7.96337 13.3613L11.3584 16.8792C11.5217 17.0599 11.755 17.1563 12 17.1563C12.1945 17.1563 12.3889 17.0894 12.5429 16.9625L12.63 16.8792L16.025 13.3613C16.375 12.9999 16.375 12.4096 16.025 12.0481C15.7069 11.7196 15.2055 11.6897 14.854 11.9585L14.7534 12.0481L12.8984 13.9757V6.50629L11.1018 6.50593Z" fill="url(#paint0_linear_1009_2120)"/>
  <defs>
    <linearGradient id="paint0_linear_1009_2120" x1="23.6667" y1="23.0837" x2="-3.8672" y2="14.6803" gradientUnits="userSpaceOnUse">
      <stop stop-color="#1BAC4B"/>
      <stop offset="1" stop-color="#46D375"/>
    </linearGradient>
  </defs>
</svg>
