<svg xmlns="http://www.w3.org/2000/svg" width="25" height="24" viewBox="0 0 25 24" fill="none">
  <path d="M23.508 1.01199C22.9244 0.413039 22.0607 0.189901 21.2554 0.424783L2.47604 5.88579C1.62636 6.12184 1.02411 6.79948 0.861876 7.66032C0.696141 8.53643 1.27505 9.64859 2.03135 10.1137L7.90326 13.7226C8.50551 14.0926 9.28282 13.9998 9.78119 13.4971L16.5051 6.73136C16.8436 6.37904 17.4038 6.37904 17.7423 6.73136C18.0808 7.07194 18.0808 7.62391 17.7423 7.97623L11.0067 14.7432C10.5072 15.2447 10.4138 16.0256 10.7814 16.6316L14.3692 22.5624C14.7894 23.267 15.513 23.6663 16.3067 23.6663C16.4001 23.6663 16.5051 23.6663 16.5985 23.6546C17.5089 23.5372 18.2325 22.9147 18.5009 22.0339L24.0682 3.2786C24.3133 2.48 24.0916 1.61094 23.508 1.01199Z" fill="url(#paint0_linear_1009_2245)"/>
  <defs>
    <linearGradient id="paint0_linear_1009_2245" x1="24.1667" y1="23.6663" x2="-3.59786" y2="15.6163" gradientUnits="userSpaceOnUse">
      <stop stop-color="#1BAC4B"/>
      <stop offset="1" stop-color="#46D375"/>
    </linearGradient>
  </defs>
</svg>
